<svg width="11" height="17" viewBox="0 0 11 17" fill="none" xmlns="http://www.w3.org/2000/svg">
<path d="M1.24519 7.29199C1.32874 7.206 1.41937 7.13343 1.51473 7.07031L7.89391 0.481925C8.51624 -0.16054 9.5259 -0.160845 10.1485 0.48223C10.7712 1.125 10.7712 2.16752 10.1485 2.8109L4.65472 8.48514L10.1769 14.189C10.7995 14.8317 10.7995 15.8739 10.1769 16.5176C9.86541 16.8396 9.45711 17 9.0497 17C8.6423 17 8.23371 16.8396 7.92254 16.5176L1.51473 9.89874C1.41937 9.83562 1.32815 9.76305 1.24519 9.67706C0.926937 9.34836 0.773421 8.91538 0.781097 8.48453C0.773421 8.05368 0.926937 7.62099 1.24519 7.29199Z" fill="black"/>
</svg>
