<svg width="11" height="17" viewBox="0 0 11 17" fill="none" xmlns="http://www.w3.org/2000/svg">
<path d="M9.76798 7.29242C9.68532 7.20643 9.5938 7.13386 9.49874 7.07074L3.11938 0.481933C2.49677 -0.160543 1.48772 -0.160848 0.864806 0.482238C0.242191 1.12502 0.242191 2.16756 0.864806 2.81095L6.3591 8.48529L0.837055 14.1895C0.214146 14.832 0.214146 15.8748 0.837055 16.5182C1.14851 16.8393 1.55621 17 1.9639 17C2.3716 17 2.78018 16.8393 3.09075 16.5176L9.49874 9.89983C9.5938 9.83671 9.68503 9.76445 9.76798 9.67815C10.0868 9.34883 10.2397 8.91645 10.2327 8.48529C10.24 8.05382 10.0868 7.62083 9.76798 7.29242Z" fill="black"/>
</svg>
